<?xml version="1.0" encoding="utf-8"?>
<!-- Generator: Adobe Illustrator 25.1.0, SVG Export Plug-In . SVG Version: 6.00 Build 0)  -->
<svg version="1.1" id="Layer_1" xmlns="http://www.w3.org/2000/svg" xmlns:xlink="http://www.w3.org/1999/xlink" x="0px" y="0px"
	 viewBox="0 0 400 400" style="enable-background:new 0 0 400 400;" xml:space="preserve">
<style type="text/css">
	.st0{fill:#254146;}
</style>
<path class="st0" d="M375.5,369.9L375.5,369.9c11.8-6.6,16-21.4,9.5-33.2l-88.1-159.5l-27.9-50.5L228,52.5l-7.4-13.4
	c-8.9-16.1-32.1-16.1-41,0l-7.4,13.4l-40.9,74L103.4,177L15,336.8c-6.5,11.8-2.3,26.6,9.5,33.1l0,0c11.8,6.6,26.7,2.3,33.2-9.5
	l73.6-133l41,74.3l-19.6,35.1c-6.5,11.8-2.3,26.6,9.5,33.1l0,0c11.8,6.6,26.7,2.3,33.2-9.5l4.8-8.2l4.6,8.2
	c6.5,11.8,21.4,16.1,33.2,9.5l0,0c11.8-6.5,16-21.4,9.5-33.1l-19.4-35.1l40.9-74l73.3,132.8C348.9,372.2,363.7,376.5,375.5,369.9z
	 M200.2,251.2L159.2,177l40.9-74l41,74.3L200.2,251.2z"/>
</svg>
